<svg version="1.1" xmlns="http://www.w3.org/2000/svg" viewBox="-18.2 85.3 1984.5 910.3">
<rect x="-18.2" y="85.3" width="1984.5" height="910.3" fill="#202124" />
<polyline points="30.0 252.0,29.0 260.0,29.0 265.0,30.0 371.0,31.0 474.0,32.0 499.0,32.0 506.0,33.0 513.0,34.0 518.0,34.0 523.0,35.0 537.0,36.0 543.0,36.0 549.0,35.0 578.0,34.0 584.0,34.0 590.0,33.0 600.0,33.0 605.0,34.0 633.0,34.0 638.0,35.0 641.0,35.0 644.0,36.0 647.0,36.0 651.0,37.0 657.0,37.0 660.0,38.0 671.0,38.0 675.0,39.0 678.0,43.0 678.0,48.0 677.0,59.0 676.0,63.0 676.0,75.0 675.0,80.0 675.0,93.0 674.0,99.0 673.0,105.0 673.0,133.0 672.0,139.0 672.0,151.0 671.0,155.0 671.0,245.0 672.0" style="fill:none;stroke:#ffffff;stroke-width:2"/>
<polyline points="247.0 675.0,251.0 674.0,258.0 673.0,264.0 673.0,323.0 673.0,325.0 673.0,327.0 673.0" style="fill:none;stroke:#ffffff;stroke-width:2"/>
<polyline points="352.0 225.0,352.0 228.0,354.0 233.0,354.0 236.0,355.0 240.0,357.0 245.0,357.0 251.0,359.0 257.0,361.0 270.0,363.0 279.0,364.0 288.0,365.0 295.0,367.0 304.0,367.0 311.0,368.0 319.0,373.0 373.0,374.0 382.0,374.0 390.0,375.0 398.0,375.0 407.0,376.0 438.0,376.0 446.0,376.0 549.0,377.0 570.0,377.0 574.0,379.0 656.0,379.0 659.0,375.0 676.0,369.0 674.0,366.0 674.0,363.0 673.0,360.0 673.0,351.0 672.0,348.0 672.0,345.0 671.0,341.0 671.0,334.0 672.0,329.0 673.0,326.0 674.0,324.0 674.0" style="fill:none;stroke:#ffffff;stroke-width:2"/>
<polyline points="90.0 518.0,91.0 520.0,92.0 525.0,94.0 532.0,95.0 537.0,95.0 541.0,97.0 545.0,97.0 549.0,98.0 552.0,98.0 555.0,99.0 565.0,100.0 570.0,101.0 580.0,103.0 584.0,104.0 590.0,104.0 595.0,105.0 600.0,105.0 605.0,106.0 615.0,106.0 618.0,106.0 622.0" style="fill:none;stroke:#ffffff;stroke-width:2"/>
<polyline points="96.0 508.0,101.0 507.0,107.0 506.0,120.0 505.0,127.0 503.0,137.0 503.0,145.0 502.0,155.0 502.0,172.0 501.0,180.0 501.0,188.0 500.0,202.0 499.0,209.0 498.0,215.0 497.0,231.0 495.0,234.0 493.0,238.0 492.0,241.0 492.0,245.0 491.0,247.0 490.0,251.0 489.0,253.0 488.0,256.0 487.0,258.0 486.0,262.0 485.0,264.0 484.0,268.0 483.0,270.0 482.0,275.0 481.0,278.0 480.0,281.0 480.0,289.0 479.0,293.0 479.0,294.0 481.0,294.0 485.0,295.0 488.0,297.0 495.0,297.0 499.0,298.0 504.0,299.0 514.0,299.0 519.0,300.0 540.0,300.0 544.0,301.0 565.0,301.0 569.0,302.0 575.0,302.0 578.0,303.0 581.0,303.0 584.0,304.0 587.0,304.0 590.0,305.0 595.0,305.0 599.0,306.0 603.0,306.0 606.0,307.0 618.0,307.0 621.0,304.0 625.0,300.0 626.0,291.0 627.0,285.0 628.0,280.0 627.0,274.0 627.0,231.0 628.0,227.0 628.0,217.0 629.0,212.0 630.0,209.0 630.0,202.0 631.0,196.0 632.0,192.0 632.0,185.0 633.0,182.0 633.0,179.0 634.0,174.0 635.0,170.0 635.0,164.0 636.0,161.0 637.0,158.0 637.0,154.0 638.0,151.0 638.0,144.0 639.0,139.0 640.0,137.0 641.0,132.0 641.0,126.0 642.0,123.0 642.0,117.0 643.0,113.0 643.0,109.0 644.0,107.0 642.0,106.0 638.0,106.0 635.0,105.0 632.0,105.0 628.0,104.0 624.0,104.0 619.0,104.0 614.0" style="fill:none;stroke:#ffffff;stroke-width:2"/>
<polyline points="145.0 557.0,142.0 562.0,141.0 571.0,141.0 574.0,142.0 581.0,142.0 584.0,144.0 587.0,145.0 589.0,147.0 591.0,151.0 590.0,155.0 587.0,157.0 585.0,160.0 581.0,165.0 573.0,167.0 569.0,168.0 565.0,170.0 562.0,171.0 559.0,171.0 555.0,172.0 573.0,173.0 576.0,174.0 580.0,176.0 585.0,180.0 584.0,183.0 583.0,185.0 581.0,188.0 580.0" style="fill:none;stroke:#ffffff;stroke-width:2"/>
<polyline points="202.0 552.0,203.0 557.0,204.0 560.0,204.0 563.0,205.0 566.0,205.0 569.0,204.0 564.0,204.0 560.0,205.0 549.0,205.0 546.0,207.0 543.0,209.0 541.0,212.0 540.0,216.0 540.0,218.0 541.0,220.0 543.0,222.0 545.0" style="fill:none;stroke:#ffffff;stroke-width:2"/>
<polyline points="243.0 544.0,244.0 550.0,247.0 561.0,247.0 564.0,248.0 571.0,248.0 577.0,247.0 574.0,247.0 568.0,246.0 565.0,245.0 561.0,244.0 555.0,244.0 552.0,245.0 544.0,246.0 542.0,248.0 539.0,250.0 537.0,253.0 535.0,255.0 534.0,259.0 533.0,262.0 535.0,264.0 537.0,265.0 540.0,266.0 541.0" style="fill:none;stroke:#ffffff;stroke-width:2"/>
<polyline points="165.0 560.0,166.0 556.0,167.0 553.0,167.0 545.0,165.0 544.0,159.0 543.0,156.0 543.0,148.0 544.0,147.0 546.0,145.0 548.0,145.0 552.0,145.0 558.0" style="fill:none;stroke:#ffffff;stroke-width:2"/>
<polyline points="562.0 131.0,563.0 138.0,565.0 145.0,566.0 154.0,568.0 165.0,569.0 177.0,569.0 189.0,570.0 206.0,570.0 225.0,570.0 347.0,571.0 464.0,572.0 499.0,575.0 560.0,580.0 688.0,581.0 741.0,581.0 765.0,584.0 856.0,585.0 867.0,587.0 879.0,589.0 888.0,591.0 899.0,592.0 907.0,594.0 913.0,595.0 917.0,596.0 920.0,597.0 925.0" style="fill:none;stroke:#ffffff;stroke-width:2"/>
<polyline points="1895.0 107.0,1896.0 113.0,1898.0 121.0,1900.0 130.0,1903.0 137.0,1904.0 145.0,1906.0 157.0,1909.0 166.0,1911.0 176.0,1914.0 188.0,1916.0 199.0,1919.0 210.0,1919.0 223.0,1919.0 332.0,1919.0 435.0,1919.0 540.0,1919.0 648.0,1919.0 754.0,1919.0 861.0,1919.0 964.0,1919.0 974.0" style="fill:none;stroke:#ffffff;stroke-width:2"/>
<polyline points="677.0 664.0,677.0 667.0,676.0 674.0,676.0 681.0,674.0 687.0,674.0 693.0,674.0 788.0" style="fill:none;stroke:#ffffff;stroke-width:2"/>
<polyline points="686.0 670.0,692.0 670.0,708.0 671.0,714.0 672.0,721.0 673.0,727.0 673.0,755.0 671.0,760.0 670.0,767.0 669.0,772.0 668.0,778.0 667.0,784.0 667.0,791.0 666.0,796.0 666.0,810.0 665.0,817.0 666.0,831.0 667.0,837.0 668.0,842.0 669.0,848.0 670.0,853.0 670.0,868.0 671.0,873.0 671.0,894.0 670.0,899.0 670.0,907.0 669.0,910.0 669.0,914.0 668.0,916.0 667.0,921.0 667.0,925.0 666.0,931.0 665.0,934.0 666.0,935.0 670.0,936.0 672.0,936.0 675.0,937.0 680.0,938.0 683.0,938.0 690.0,939.0 696.0,940.0 705.0,941.0 712.0,941.0 718.0,942.0 738.0,942.0 744.0,943.0 765.0,943.0 768.0,942.0 802.0,939.0 803.0,936.0 803.0,932.0 804.0,928.0 804.0,891.0 805.0,885.0 805.0,837.0 804.0,829.0 804.0,817.0 803.0,809.0 802.0,802.0 801.0,796.0 801.0,766.0 802.0,759.0 802.0,742.0 803.0,737.0 803.0,715.0 804.0,711.0 804.0,690.0 805.0,685.0 806.0,681.0 806.0,664.0 806.0" style="fill:none;stroke:#ffffff;stroke-width:2"/>
<polyline points="730.0 683.0,731.0 685.0,732.0 689.0,732.0 707.0,733.0 736.0,733.0 743.0,734.0 765.0,735.0 771.0,735.0 775.0,736.0 779.0,737.0 777.0" style="fill:none;stroke:#ffffff;stroke-width:2"/>
<polyline points="826.0 684.0,826.0 708.0,825.0 717.0,825.0 724.0,826.0 740.0,826.0 746.0,827.0 750.0,827.0 754.0,828.0 758.0,828.0 762.0,828.0 783.0" style="fill:none;stroke:#ffffff;stroke-width:2"/>
<polyline points="722.0 797.0,723.0 799.0,724.0 804.0,725.0 806.0,727.0 807.0,728.0 811.0,730.0 813.0,733.0 817.0,735.0 819.0,738.0 820.0,740.0 823.0,743.0 824.0,747.0 826.0,751.0 826.0,761.0 825.0,765.0 823.0,768.0 823.0,771.0 822.0,774.0 822.0,777.0 820.0,780.0 820.0,782.0 819.0,784.0 817.0,787.0 815.0,789.0 814.0,791.0 811.0,793.0 807.0,795.0 802.0,797.0 799.0,798.0 796.0,799.0 794.0,800.0 790.0" style="fill:none;stroke:#ffffff;stroke-width:2"/>
<polyline points="752.0 863.0,749.0 871.0,749.0 875.0,751.0 879.0,754.0 881.0,757.0 881.0,771.0 880.0,772.0 879.0" style="fill:none;stroke:#ffffff;stroke-width:2"/>
<polyline points="778.0 858.0,778.0 861.0,779.0 876.0,779.0 880.0,779.0 896.0" style="fill:none;stroke:#ffffff;stroke-width:2"/>
<polyline points="810.0 858.0,810.0 876.0,811.0 886.0,811.0 890.0,813.0 899.0,814.0 896.0,815.0 894.0,819.0 889.0,823.0 887.0,826.0 888.0,827.0 890.0,829.0 891.0,830.0 894.0,831.0 900.0,830.0 904.0,828.0 906.0,826.0 907.0,820.0 909.0,816.0 910.0,814.0 910.0" style="fill:none;stroke:#ffffff;stroke-width:2"/>
<polyline points="845.0 890.0,847.0 894.0,851.0 896.0,859.0 891.0,861.0 890.0,863.0 887.0,864.0 884.0,866.0 880.0,866.0 883.0,865.0 885.0,864.0 890.0,863.0 893.0,863.0 896.0,861.0 900.0,861.0 903.0,860.0 906.0,860.0 909.0,859.0 912.0,857.0 917.0,857.0 920.0,855.0 923.0,855.0 925.0" style="fill:none;stroke:#ffffff;stroke-width:2"/>
<polyline points="893.0 866.0,893.0 888.0,894.0 899.0,894.0 902.0,895.0 909.0" style="fill:none;stroke:#ffffff;stroke-width:2"/>
<polyline points="888.0 890.0,892.0 888.0,895.0 887.0,899.0 884.0,904.0 882.0,907.0 881.0,911.0 878.0,915.0 877.0,917.0 876.0,919.0 876.0" style="fill:none;stroke:#ffffff;stroke-width:2"/>
<polyline points="912.0 900.0,915.0 899.0,917.0 898.0,922.0 896.0,924.0 895.0,926.0 893.0,928.0 890.0,929.0 887.0,929.0 884.0,927.0 882.0,925.0 883.0,922.0 884.0,921.0 886.0,919.0 889.0,919.0 893.0,920.0 897.0,921.0 899.0,924.0 903.0,927.0 906.0,930.0 907.0,933.0 907.0,942.0 906.0,944.0 906.0" style="fill:none;stroke:#ffffff;stroke-width:2"/>
<polyline points="279.0 602.0,285.0 602.0,299.0 603.0,304.0 604.0,311.0 605.0,319.0 606.0,337.0 609.0,345.0 611.0,355.0 613.0,366.0 615.0,377.0 618.0,387.0 620.0,408.0 625.0,420.0 627.0,440.0 632.0,451.0 634.0,462.0 637.0,472.0 640.0,488.0 646.0,501.0 652.0,507.0 655.0,512.0 659.0,516.0 661.0,520.0 664.0,523.0 666.0,527.0 669.0,529.0 671.0,532.0 675.0,535.0 678.0,537.0 681.0,544.0 691.0,547.0 694.0,552.0 700.0,555.0 703.0,558.0 705.0,560.0 708.0,563.0 710.0,566.0 713.0,570.0 716.0,575.0 720.0,580.0 723.0,586.0 726.0,604.0 734.0,609.0 735.0,615.0 737.0,618.0 737.0,623.0 739.0,626.0 739.0,631.0 740.0,634.0 741.0,639.0 742.0,643.0 742.0,646.0 741.0,651.0 739.0,653.0 737.0,657.0 736.0,661.0 736.0,664.0 735.0" style="fill:none;stroke:#ffffff;stroke-width:2"/>
<polyline points="637.0 712.0,641.0 714.0,646.0 716.0,651.0 719.0,653.0 720.0,655.0 722.0,662.0 730.0,663.0 732.0,664.0 735.0,665.0 740.0,664.0 745.0,663.0 748.0,659.0 757.0,658.0 759.0,654.0 764.0,653.0 767.0" style="fill:none;stroke:#ffffff;stroke-width:2"/>
<polyline points="654.6 190.2,653.2 195.6,653.2 203.5,651.9 211.5,651.9 214.2,650.6 227.5,649.2 232.8,649.2 240.8,647.9 248.8,649.2 252.8,650.6 262.1,651.9 274.1,651.9 280.7,651.9 296.7" style="fill:none;stroke:#ffffff;stroke-width:2"/>
<polyline points="657.2 190.2,659.9 188.9,663.9 186.2,666.5 186.2,669.2 184.9,673.2 183.6,682.5 182.2,694.5 180.9,701.1 180.9,803.6 180.9,838.2 179.6,840.9 179.6,844.9 176.9,848.9 176.9,851.5 178.2,852.9 182.2,854.2 190.2,855.5 194.2,856.9 200.9,858.2 215.5,859.5 222.2,860.9 236.8,860.9 247.5,862.2 255.4,862.2 262.1,860.9 270.1,860.9 276.7,859.5 291.4,859.5 295.4,858.2 299.4,858.2 303.4,856.9 314.0,854.2 316.7,848.9 318.0,846.2 318.0,805.0 316.7,793.0 316.7,774.3 315.3,762.4 315.3,753.0 314.0,741.1 314.0,657.2 314.0" style="fill:none;stroke:#ffffff;stroke-width:2"/>
<polyline points="678.5 226.2,679.8 223.5,686.5 218.2,690.5 215.5,694.5 215.5,698.5 214.2,701.1 214.2,705.1 215.5,706.5 219.5,706.5 223.5,707.8 227.5,707.8 232.8,706.5 242.1,705.1 246.1,702.5 248.8,701.1 254.1,698.5 258.1,689.2 270.1,687.8 272.7,685.2 275.4,685.2 278.1,683.8 282.1,685.2 287.4,689.2 290.1,694.5 291.4,702.5 291.4,727.8 290.1,730.4 290.1" style="fill:none;stroke:#ffffff;stroke-width:2"/>
<polyline points="754.4 232.8,746.4 235.5,743.7 239.5,741.1 244.8,739.7 250.1,739.7 252.8,738.4 255.4,737.1 259.4,737.1 263.4,738.4 276.7,739.7 279.4,739.7 282.1,742.4 283.4,746.4 286.1,749.1 286.1,753.0 284.7,757.0 282.1,758.4 279.4,761.0 278.1,761.0 274.1,762.4 271.4,762.4 267.4,761.0 248.8,759.7 244.8,759.7 242.1,757.0 240.8,757.0 238.1,754.4 234.1" style="fill:none;stroke:#ffffff;stroke-width:2"/>
<polyline points="799.6 227.5,791.6 222.2,789.0 222.2,786.3 223.5,782.3 227.5,779.7 231.5,778.3 235.5,775.7 239.5,774.3 244.8,774.3 250.1,775.7 267.4,775.7 270.1,777.0 278.1,778.3 284.7,779.7 288.7,781.0 294.0,783.7 299.4,786.3 299.4,795.6 298.0,799.6 296.7,805.0 292.7,808.9 290.1,816.9 282.1,820.9 276.7,823.6 272.7,823.6 268.8,824.9 264.8,824.9 260.8,823.6 248.8,820.9 244.8,820.9 240.8,815.6 236.8,812.9 232.8,808.9 228.8,807.6 226.2,803.6 223.5,801.0 223.5,799.6 222.2" style="fill:none;stroke:#ffffff;stroke-width:2"/>
<polyline points="1330.7 645.4,1330.7 650.8,1332.0 660.1,1333.4 670.7,1334.7 685.4,1338.7 742.6,1340.0 769.2,1341.3 778.5,1341.3 787.8,1341.3 813.1" style="fill:none;stroke:#ffffff;stroke-width:2"/>
<polyline points="1334.7 640.1,1338.7 640.1,1348.0 638.8,1357.3 638.8,1369.3 637.4,1382.6 637.4,1494.4 637.4,1562.3 638.8,1579.6 640.1,1611.5 641.4,1626.2 641.4,1676.8 645.4,1678.1 652.1,1680.8 658.7,1680.8 666.7,1683.4 676.0,1684.7 685.4,1687.4 713.3,1688.7 722.6,1690.1 734.6,1690.1 745.3,1692.7 755.9,1692.7 766.5,1694.1 775.9,1694.1 779.9,1695.4 789.2,1695.4 793.2,1694.1 805.1,1688.7 806.5,1684.7 807.8,1679.4 809.1,1672.8 809.1,1643.5 810.5,1631.5 810.5,1519.7 813.1,1507.7 813.1,1481.1 814.5,1471.8 814.5,1414.6 813.1,1407.9 811.8,1402.6 810.5,1394.6 809.1,1389.3 809.1,1368.0 807.8,1364.0 807.8,1346.7 809.1,1342.7 809.1,1340.0 805.1,1342.7 799.8" style="fill:none;stroke:#ffffff;stroke-width:2"/>
<polyline points="1387.9 694.7,1389.3 698.7,1389.3 704.0,1390.6 710.6,1391.9 718.6,1393.3 735.9,1394.6 743.9,1395.9 750.6,1397.2 762.6,1397.2 767.9,1395.9 779.9,1395.9 782.5" style="fill:none;stroke:#ffffff;stroke-width:2"/>
<polyline points="1457.1 698.7,1453.2 700.0,1450.5 700.0,1447.8 701.3,1443.8 702.7,1441.2 704.0,1438.5 706.7,1433.2 713.3,1431.9 718.6,1429.2 725.3,1427.9 729.3,1427.9 734.6,1429.2 757.2,1431.9 762.6,1433.2 767.9,1435.8 770.5,1437.2 773.2,1439.8 775.9,1443.8 777.2,1450.5 775.9,1453.2 774.5,1457.1 771.9,1462.5 769.2,1466.5 766.5,1470.5 762.6,1474.4 757.2,1479.8 746.6,1481.1 739.9,1481.1 734.6,1479.8 713.3,1478.4 710.6,1474.4 705.3,1471.8 701.3,1470.5 700.0" style="fill:none;stroke:#ffffff;stroke-width:2"/>
<polyline points="1555.6 689.4,1550.3 692.0,1545.0 696.0,1542.3 700.0,1538.3 704.0,1537.0 708.0,1534.3 713.3,1533.0 718.6,1533.0 724.0,1534.3 741.3,1537.0 746.6,1537.0 751.9,1539.7 757.2,1542.3 761.2,1543.7 763.9,1547.7 763.9,1553.0 762.6,1558.3 758.6,1562.3 758.6,1565.0 755.9,1568.9 753.2,1571.6 750.6,1575.6 745.3,1576.9 742.6,1578.3 738.6,1578.3 735.9,1576.9 726.6,1574.3 720.0,1570.3 713.3,1566.3 705.3,1558.3 692.0,1557.0 686.7,1554.3 682.7" style="fill:none;stroke:#ffffff;stroke-width:2"/>
<polyline points="1622.2 681.4,1616.9 684.0,1615.5 686.7,1612.9 690.7,1608.9 696.0,1608.9 698.7,1604.9 704.0,1604.9 708.0,1603.6 714.6,1602.2 726.6,1602.2 733.3,1604.9 739.9,1608.9 750.6,1612.9 754.6,1612.9 758.6,1615.5 758.6,1616.9 761.2,1619.5 758.6,1622.2 757.2,1624.8 754.6,1627.5 750.6,1630.2 743.9,1631.5 738.6,1631.5 733.3,1632.8 729.3,1632.8 725.3,1631.5 721.3,1630.2 718.6,1627.5 716.0" style="fill:none;stroke:#ffffff;stroke-width:2"/>
<polyline points="1245.5 190.2,1245.5 195.6,1246.8 202.2,1246.8 210.2,1245.5 340.6,1244.2 361.9,1241.5 371.2,1240.2 377.9,1238.9 381.9,1237.5 384.6,1237.5 387.2,1236.2 371.2,1236.2 360.6,1236.2 353.9" style="fill:none;stroke:#ffffff;stroke-width:2"/>
<polyline points="1246.8 172.9,1249.5 172.9,1273.5 174.3,1281.5 174.3,1292.1 175.6,1304.1 175.6,1314.7 176.9,1329.4 176.9,1421.2 174.3,1425.2 172.9,1427.9 172.9,1431.9 171.6,1433.2 176.9,1433.2 180.9,1434.5 186.2,1434.5 190.2,1433.2 227.5,1431.9 236.8,1431.9 244.8,1430.5 254.1,1427.9 270.1,1426.5 279.4,1425.2 286.1,1423.9 291.4,1423.9 298.0,1422.5 303.4,1422.5 310.0,1421.2 359.3,1419.9 363.3,1419.9 367.2,1418.5 369.9,1418.5 373.9,1415.9 377.9,1414.6 383.2,1411.9 387.2,1409.2 392.5,1406.6 396.5,1401.2 399.2,1397.2 400.5,1393.3 403.2,1387.9 404.5,1381.3 404.5,1338.7 403.2,1328.0 403.2,1318.7 400.5,1308.1 400.5,1285.4 397.9,1265.5 396.5,1256.2 395.2,1248.2 393.9,1240.2 393.9,1233.5 392.5,1228.2 392.5,1217.6 392.5" style="fill:none;stroke:#ffffff;stroke-width:2"/>
<polyline points="1270.8 219.5,1273.5 223.5,1274.8 228.8,1276.1 232.8,1276.1 236.8,1272.1 255.4,1270.8 260.8,1266.8 263.4,1264.1 267.4,1262.8 270.1,1260.2 271.4,1258.8 274.1,1261.5 274.1,1276.1 275.4,1286.8 278.1,1296.1 280.7,1308.1 283.4,1317.4 287.4,1325.4 290.1,1330.7 292.7,1334.7 295.4,1336.0 298.0,1337.4 303.4,1337.4 307.4,1336.0 311.3,1332.0 319.3,1329.4 322.0,1320.1 330.0,1316.1 334.0,1313.4 335.3,1309.4 338.0,1306.7 338.0,1304.1 340.6,1301.4 342.0,1298.8 342.0,1296.1 342.0" style="fill:none;stroke:#ffffff;stroke-width:2"/>
<polyline points="1368.0 235.5,1366.6 239.5,1364.0 246.1,1362.6 252.8,1362.6 262.1,1360.0 270.1,1360.0 278.1,1361.3 299.4,1362.6 303.4,1364.0 306.0,1366.6 308.7,1370.6 310.0,1373.3 310.0,1376.0 308.7,1377.3 306.0,1377.3 303.4,1378.6 298.0,1378.6 294.0,1377.3 274.1,1374.6 267.4,1372.0 262.1,1370.6 258.1,1368.0 254.1,1366.6 251.5,1364.0 248.8" style="fill:none;stroke:#ffffff;stroke-width:2"/>
<polyline points="1394.6 232.8,1394.6 238.1,1393.3 258.1,1393.3 266.1,1394.6 279.4,1394.6 286.1,1395.9 290.1,1395.9 292.7,1397.2 295.4,1399.9 291.4,1403.9 283.4,1407.9 274.1,1407.9 268.8,1409.2 262.1,1409.2 258.1,1407.9 247.5,1406.6 244.8" style="fill:none;stroke:#ffffff;stroke-width:2"/>
<polyline points="691.8 698.7,694.5 696.0,698.5 686.7,702.5 678.7,706.5 673.4,710.5 662.7,715.8 650.8,726.4 625.5,731.7 612.2,733.1 597.5,735.7 578.9,735.7 562.9,731.7 455.1,729.1 447.1,726.4 436.5,722.4 417.8,719.8 409.8,719.8 400.5,717.1 393.9,715.8 388.5,715.8 381.9,717.1 347.3,717.1 342.0,718.4 330.0,718.4 327.3,717.1 320.7,714.4 323.3,710.5 328.7,705.1 334.0,702.5 338.0,698.5 342.0,689.2 348.6,686.5 351.3,682.5 353.9,679.8 356.6,681.2 349.9,683.8 344.6,685.2 339.3,687.8 336.6,690.5 331.3,693.1 328.7,695.8 324.7,698.5 323.3,702.5 320.7,706.5 319.3,709.1 318.0,713.1 316.7,715.8 319.3,719.8 324.7,722.4 327.3,723.8 330.0,727.8 334.0,729.1 336.6,731.7 340.6,735.7 343.3,737.1 346.0,739.7 348.6,741.1 352.6,743.7 352.6,745.1 353.9" style="fill:none;stroke:#ffffff;stroke-width:2"/>
<polyline points="1256.2 363.3,1253.5 367.2,1250.8 368.6,1249.5 371.2,1245.5 373.9,1240.2 376.6,1234.9 381.9,1228.2 387.2,1220.2 392.5,1209.6 399.2,1200.3 404.5,1187.0 413.8,1173.6 421.8,1160.3 431.1,1144.4 440.5,1132.4 448.4,1120.4 457.8,1104.4 468.4,1081.8 485.7,1072.5 492.4,1044.5 513.7,1035.2 519.0,1027.2 524.3,1004.6 540.3,997.9 544.3,992.6 548.3,986.0 553.6,980.6 558.9,975.3 562.9,970.0 568.2,963.3 573.6,956.7 577.5,951.4 581.5,944.7 586.9,938.1 589.5,930.1 593.5,923.4 597.5,916.8 600.2,912.8 602.8,906.1 606.8,900.8 609.5,896.8 610.8,892.8 613.5,880.8 620.1,878.2 622.8,874.2 625.5,860.9 634.8,856.9 637.4,851.5 641.4,847.5 645.4,843.6 646.8,839.6 649.4,836.9 653.4,832.9 656.1,828.9 660.1,820.9 666.7,818.3 670.7,815.6 673.4,807.6 682.7,805.0 686.7,803.6 689.4,803.6 692.0,802.3 694.7,799.6 697.3,799.6 700.0,797.0 702.7,794.3 706.7,791.6 709.3,790.3 713.3,787.7 716.0,787.7 710.6,791.6 700.0" style="fill:none;stroke:#ffffff;stroke-width:2"/>
<polyline points="1224.2 359.3,1226.9 359.3,1233.5 357.9,1241.5 356.6,1245.5 355.3,1250.8 355.3,1253.5 353.9,1257.5 353.9,1264.1 356.6,1266.8 359.3,1266.8 363.3,1268.1 368.6,1269.5 379.2,1270.8 384.6,1270.8 391.2,1269.5 420.5,1269.5 423.2" style="fill:none;stroke:#ffffff;stroke-width:2"/>
<polyline points="922.1 742.6,923.4 738.6,926.1 733.3,930.1 726.6,935.4 721.3,956.7 704.0,967.3 701.3,976.7 697.3,984.6 694.7,1001.9 690.7,1009.9 689.4,1019.2 688.0,1028.6 685.4,1037.9 685.4,1103.1 686.7,1111.1 688.0,1120.4 688.0,1128.4 690.7,1136.4 692.0,1144.4 692.0,1151.0 693.3,1157.7 693.3,1164.3 696.0,1169.6 696.0,1180.3 697.3,1184.3 698.7,1187.0 698.7,1189.6 700.0,1192.3 702.7,1198.9 706.7,1201.6 709.3,1208.2 713.3,1212.2 714.6,1216.2 717.3,1218.9 717.3,1221.6 720.0,1225.5 721.3,1229.5 721.3,1241.5 722.6,1245.5 722.6,1260.2 721.3,1262.8 721.3,1265.5 720.0,1269.5 718.6,1273.5 716.0,1276.1 714.6,1278.8 712.0,1280.1 709.3,1282.8 706.7,1286.8 702.7" style="fill:none;stroke:#ffffff;stroke-width:2"/>
<polyline points="1262.8 690.7,1266.8 688.0,1270.8 686.7,1288.1 682.7,1288.1 685.4,1290.8 690.7,1290.8 696.0,1292.1 701.3,1292.1 705.3,1293.4 718.6,1293.4 721.3,1293.4 728.0" style="fill:none;stroke:#ffffff;stroke-width:2"/>
</svg>